<svg width="30" height="30" viewBox="0 0 30 30" fill="none" xmlns="http://www.w3.org/2000/svg">
<g clip-path="url(#clip0_23_99)">
<path d="M30 15.0919C30 6.75564 23.2837 -0.00186157 15 -0.00186157C6.7125 1.34278e-05 -0.00375366 6.75564 -0.00375366 15.0938C-0.00375366 22.6256 5.4825 28.8694 12.6525 30.0019V19.455H8.84625V15.0938H12.6562V11.7656C12.6562 7.98376 14.8969 5.89501 18.3225 5.89501C19.965 5.89501 21.6806 6.18939 21.6806 6.18939V9.90189H19.7887C17.9269 9.90189 17.3456 11.0663 17.3456 12.2606V15.0919H21.5044L20.8406 19.4531H17.3437V30C24.5137 28.8675 30 22.6238 30 15.0919Z" fill="white"/>
</g>
<defs>
<clipPath id="clip0_23_99">
<rect width="30" height="30" fill="white"/>
</clipPath>
</defs>
</svg>
